# xmcd
#
# Track frame offsets: 
#        150
#        18482
#        34655
#        54715
#        70825
#        92215
#        110747
#        135892
#        157530
#        175392
#        196752
#        218100
#
# Disc length: 3112 seconds
#
# Revision: 6
# Processed by: cddbd v1.5.2PL0 Copyright (c) Steve Scherf et al.
# Submitted via: ExactAudioCopy v1.0b3
#
DISCID=9b0c260c
DTITLE=Vargas Blues Band - Madrid - Memphis
DYEAR=1992
DGENRE=Blues
TTITLE0=Hard Time Blues
TTITLE1=One Day I Get Lucky
TTITLE2=Madrid - Memphis
TTITLE3=Blues Business
TTITLE4=Get Ready
TTITLE5=Generation Blues
TTITLE6=2001 Blues
TTITLE7=Del Sur
TTITLE8=Right Time
TTITLE9=When The Night Falls
TTITLE10=I'm Ready
TTITLE11=Strip-Tease
EXTD=
EXTT0=
EXTT1=
EXTT2=
EXTT3=
EXTT4=
EXTT5=
EXTT6=
EXTT7=
EXTT8=
EXTT9=
EXTT10=
EXTT11=
PLAYORDER=
